<svg class="svg-icon" style="width: 1.001953125em; height: 1em;vertical-align: middle;fill: currentColor;overflow: hidden;" viewBox="0 0 1026 1024" version="1.1" xmlns="http://www.w3.org/2000/svg"><path d="M514.869394 724.114286c-7.314286 0-14.628571 0-29.257143-7.314286l-292.571428-160.914286v182.857143c0 7.314286 7.314286 21.942857 14.628571 21.942857l299.885715 138.971429h21.942857l292.571428-138.971429c7.314286-7.314286 14.628571-14.628571 14.628572-21.942857V555.885714l-292.571429 160.914286c-14.628571 7.314286-21.942857 7.314286-29.257143 7.314286z m497.371429-373.028572L529.497966 109.714286c-7.314286-7.314286-21.942857-7.314286-29.257143 0L17.497966 358.4c-14.628571 7.314286-21.942857 21.942857-14.628572 36.571429 0 7.314286 7.314286 7.314286 14.628572 14.628571l175.542857 95.085714 307.2 168.228572c7.314286 7.314286 14.628571 7.314286 29.257143 0l307.2-168.228572 95.085714-51.2v380.342857c0 14.628571 14.628571 29.257143 29.257143 21.942858 14.628571 0 21.942857-14.628571 21.942857-21.942858V416.914286l29.257143-14.628572c14.628571-7.314286 14.628571-21.942857 14.628571-36.571428 0-7.314286-7.314286-7.314286-14.628571-14.628572"  /></svg>