<svg class="svg-icon" style="width: 1em;height: 1em;vertical-align: middle;fill: currentColor;overflow: hidden;" viewBox="0 0 1024 1024" version="1.1" xmlns="http://www.w3.org/2000/svg"><path d="M85.346 320.008h853.324v554.666H85.346z" fill="#E6E9ED" /><path d="M618.686 618.686H172.014c-11.796 0-21.326-9.562-21.326-21.376 0-11.75 9.53-21.312 21.326-21.312h446.672c11.748 0 21.31 9.562 21.31 21.312 0 11.814-9.562 21.376-21.31 21.376zM618.686 703.992H172.014c-11.796 0-21.326-9.562-21.326-21.312 0-11.81 9.53-21.374 21.326-21.374h446.672c11.748 0 21.31 9.562 21.31 21.374 0 11.75-9.562 21.312-21.31 21.312zM384.006 789.302H172.014c-11.796 0-21.326-9.532-21.326-21.312s9.53-21.31 21.326-21.31h211.992c11.764 0 21.328 9.53 21.328 21.31s-9.564 21.312-21.328 21.312z" fill="#434A54" /><path d="M256.01 426.692h511.978v63.998H256.01z" fill="#ED5564" /><path d="M106.658 277.356a21.35 21.35 0 0 1-20.312-14.906c-3.562-11.25 2.672-23.25 13.922-26.782l405.31-127.994c11.234-3.532 23.218 2.688 26.75 13.904 3.56 11.25-2.688 23.25-13.906 26.782L113.094 276.356c-2.124 0.686-4.312 1-6.436 1z" fill="#434A54" /><path d="M917.296 277.356c-2.124 0-4.25-0.312-6.438-1L505.578 148.36c-11.25-3.532-17.468-15.532-13.936-26.782 3.562-11.216 15.546-17.436 26.78-13.904l405.31 127.994c11.25 3.532 17.438 15.532 13.938 26.782-2.876 9.062-11.312 14.906-20.374 14.906z" fill="#434A54" /><path d="M575.998 128.016c0 35.342-28.688 63.998-63.998 63.998-35.358 0-63.998-28.656-63.998-63.998S476.642 64.018 512 64.018c35.31 0 63.998 28.656 63.998 63.998z" fill="#F6BB42" /><path d="M0.022 256.012h1008.332v63.996H0.022z" fill="#965353" /><path d="M938.67 308.882h69.684v631.974h-69.684z" fill="#965353" /><path d="M42.692 868.862h930.79v71.996H42.692z" fill="#965353" /><path d="M25.722 288.01h69.342v626.196H25.722z" fill="#965353" /><path d="M1002.666 234.7H21.348c-11.78 0-21.326 9.532-21.326 21.312v682.658c0 11.75 9.546 21.312 21.326 21.312h981.318c11.75 0 21.312-9.562 21.312-21.312V256.012c0-11.782-9.562-21.312-21.312-21.312z m-72.872 63.998H94.19l-21.344-21.342h878.262l-21.314 21.342z m-12.498 42.654V853.3H106.688V341.352h810.608z m-853.278-12.5V865.8l-21.328 21.344V307.508l21.328 21.344z m30.172 567.134h835.606l21.312 21.312H72.846l21.344-21.312z m865.792-30.188V328.852l21.31-21.344v579.634l-21.31-21.344z" fill="#7F4545" /><path d="M789.3 810.644c-35.248 0-63.996-28.716-63.996-63.996 0-35.282 28.748-64 63.996-64 35.312 0 63.998 28.718 63.998 64 0 35.28-28.684 63.996-63.998 63.996zM810.676 639.996c0 11.78-9.562 21.342-21.376 21.342-11.75 0-21.312-9.562-21.312-21.342s9.562-21.342 21.312-21.342c11.814 0 21.376 9.562 21.376 21.342zM744.052 649.9a21.332 21.332 0 0 1 0 30.188c-8.312 8.31-21.81 8.31-30.154 0a21.332 21.332 0 0 1 0-30.188c8.344-8.31 21.842-8.31 30.154 0zM834.582 649.9c8.344-8.31 21.842-8.31 30.154 0a21.332 21.332 0 0 1 0 30.188c-8.312 8.31-21.81 8.31-30.154 0a21.332 21.332 0 0 1 0-30.188z" fill="#ED5564" /></svg>