<svg class="svg-icon" style="width: 1em;height: 1em;vertical-align: middle;fill: currentColor;overflow: hidden;" viewBox="0 0 1024 1024" version="1.1" xmlns="http://www.w3.org/2000/svg"><path d="M348.16 266.24V163.84a40.96 40.96 0 0 1 40.96-40.96h245.76a40.96 40.96 0 0 1 40.96 40.96v102.4h163.84a61.44 61.44 0 0 1 61.44 61.44v72.04864a61.44 61.44 0 0 1-37.60128 56.6272L559.67744 584.2944a122.88 122.88 0 0 1-95.35488 0L160.48128 456.35584A61.44 61.44 0 0 1 122.88 399.72864V327.68a61.44 61.44 0 0 1 61.44-61.44h163.84z m81.92 0h163.84v-61.44h-163.84v61.44z m225.28 634.88H368.64c-113.11104 0-204.8-91.68896-204.8-204.8v-145.55136a18.30912 18.30912 0 0 1 25.51808-16.81408l266.50624 113.52064a143.13472 143.13472 0 0 0 112.27136 0l266.50624-113.52064a18.3296 18.3296 0 0 1 25.51808 16.81408V696.32c0 113.11104-91.68896 204.8-204.8 204.8z"  /></svg>